<svg xmlns="http://www.w3.org/2000/svg" viewBox="0 0 90.71 90.71"><defs><style>.cls-1{fill:#141d46;}.cls-2{fill:#fff;}</style></defs><g id="Layer_2" data-name="Layer 2"><g id="Layer_1-2" data-name="Layer 1"><circle class="cls-1" cx="45.36" cy="45.36" r="45.36"/><path class="cls-2" d="M25.55,39.53A1.17,1.17,0,0,1,26.13,38l7.09-3.12a1.16,1.16,0,1,1,1.08,2.06l-.13.06-7,3.15a1.17,1.17,0,0,1-1.58-.49A.61.61,0,0,1,25.55,39.53Zm1.07,7.67a1.35,1.35,0,0,0,.49,0l7-3.15a1.18,1.18,0,0,0-.88-2.19l-7,3.15a1.19,1.19,0,1,0,.49,2.33Zm0,7a1.35,1.35,0,0,0,.49,0l7-3.15a1.18,1.18,0,0,0-.88-2.19l-7,3.15a1.19,1.19,0,0,0,.49,2.33Zm30.29-14a1.34,1.34,0,0,0,.49,0l7-3.15a1.18,1.18,0,1,0-.88-2.19l-7,3.15a1.18,1.18,0,0,0-.92,1.41,1.19,1.19,0,0,0,1.41.92Zm0,7a1.34,1.34,0,0,0,.49,0l7-3.15a1.16,1.16,0,0,0-1-2.12l-7,3.15a1.19,1.19,0,1,0,.49,2.33Zm0,7a1.34,1.34,0,0,0,.49,0l7-3.15a1.16,1.16,0,0,0-1-2.12l-7,3.15a1.19,1.19,0,0,0,.49,2.33h0ZM69.82,26.71V57a1.14,1.14,0,0,1-.67,1.07L53.51,65.16a1,1,0,0,1-.49,0,1,1,0,0,1-.49,0l-.77-.35h0l-14-6.29h0l-.21-.35-15,7A1.16,1.16,0,0,1,21,64.6a1.12,1.12,0,0,1-.1-.6V33.7a1.15,1.15,0,0,1,.67-1.16l15.64-7a1.15,1.15,0,0,1,1,0l.79.35h0l14,6.29h0l.28.14,15-6.78a1.17,1.17,0,0,1,1.55.56A1.14,1.14,0,0,1,69.82,26.71ZM37.2,28.16l-14,6.29V62.18l14-6.34h0Zm14,5.94L39.53,28.86V56.59l11.65,5.24Zm16.31-5.59-14,6.36h0V62.55l14-6.29Z"/></g></g></svg>