<svg xmlns="http://www.w3.org/2000/svg" viewBox="0 0 123.96 123.96"><defs><style>.cls-1{fill:#141d46;}.cls-2{fill:#fff;}</style></defs><g id="Layer_2" data-name="Layer 2"><g id="Layer_1-2" data-name="Layer 1"><circle class="cls-1" cx="61.98" cy="61.98" r="61.98"/><path class="cls-2" d="M72.83,72.07c-.27-.14-2.14-1.88-2.14-5.76a.48.48,0,0,0-.14-.4A19,19,0,0,0,74,59.09c1.07-4.28.8-11.1.8-11.5a32,32,0,0,0-.67-3.88c3.88-7.09.14-11.9,0-12a1.85,1.85,0,0,0-2-.53s-3.35,1.33-11.11,1.33h-2c-3.75,0-7.89.27-10.3,4C46.47,40,47.68,46,48.08,47.72c0,.94-.13,7.23.8,11.24a17.37,17.37,0,0,0,3.48,6.95v.27c0,3.88-1.87,5.62-2.14,5.75-15.52,9.5-16,17.12-16,17.93a1.54,1.54,0,0,0,1.6,1.6h0A1.55,1.55,0,0,0,37.51,90s.4-6.42,13.91-14.58L52.49,79c0,.27,1.34,5.35,9.1,5.35,7.22,0,8.69-4.14,9-5l1.21-4c13.37,8,13.91,14.45,13.91,14.58a1.61,1.61,0,1,0,3.21,0C89,89.05,88.61,81.43,72.83,72.07Zm-21-33.58c1.33-2,3.74-2.4,7.49-2.4h2a40.37,40.37,0,0,0,11-1.21c.54,1.34,1.07,4.15-1.07,7.76h0c-.53.67-3.21,1.74-7.36,1.87A13.21,13.21,0,0,1,57,43.31,2.18,2.18,0,0,0,55.7,43a2.08,2.08,0,0,0-1.07.8A5.18,5.18,0,0,1,51.29,46C50.89,43.84,50.62,40.23,51.83,38.49Zm15.38,40c0,.13-.67,2.4-5.62,2.4S55.84,78.22,55.7,78L54.1,72.6a10,10,0,0,0,1.47-4.14,12.78,12.78,0,0,0,5.89,1.47,11.89,11.89,0,0,0,6-1.47,9.11,9.11,0,0,0,1.6,4.14ZM61.59,66.58c-6.55,0-8.69-5.75-9.23-8.29a42.87,42.87,0,0,1-.67-9,8.31,8.31,0,0,0,5-2.68A17,17,0,0,0,64,47.72a19.61,19.61,0,0,0,7.49-1.47c.13.54.13.94.27,1.47,0,0,.26,6.69-.67,10.44C70.15,60.83,68.14,66.58,61.59,66.58Z"/></g></g></svg>