<svg xmlns="http://www.w3.org/2000/svg" viewBox="0 0 23.88 41.68"><defs><style>.cls-1{fill:#ffc842;}</style></defs><g id="Layer_2" data-name="Layer 2"><g id="Layer_1-2" data-name="Layer 1"><path class="cls-1" d="M11.94,36.89a1.39,1.39,0,1,1,0,2.77,1.39,1.39,0,0,1,0-2.77Zm0,1.16a.22.22,0,0,0-.22.23.23.23,0,1,0,.45,0A.23.23,0,0,0,11.94,38.05Z"/><path class="cls-1" d="M3.18,0H20.7a3.19,3.19,0,0,1,3.18,3.18V38.49a3.2,3.2,0,0,1-3.18,3.19H3.18A3.2,3.2,0,0,1,0,38.49V3.18A3.19,3.19,0,0,1,3.18,0Zm-2,5.21H22.72v-2a2,2,0,0,0-2-2H3.18a2,2,0,0,0-2,2ZM22.72,36.47H1.16v2a2,2,0,0,0,2,2H20.7a2,2,0,0,0,2-2Zm0-30.1H1.16V35.31H22.72Z"/></g></g></svg>