<svg xmlns="http://www.w3.org/2000/svg" viewBox="0 0 90.71 90.71"><defs><style>.cls-1{fill:#141d46;}.cls-2{fill:#fff;fill-rule:evenodd;}</style></defs><g id="Layer_2" data-name="Layer 2"><g id="Layer_1-2" data-name="Layer 1"><circle class="cls-1" cx="45.36" cy="45.36" r="45.36"/><path class="cls-2" d="M33.94,23.3H59.27A3.74,3.74,0,0,1,63,27.06v3.75h-6v36.6H27.68V29.7A6.27,6.27,0,0,1,33.94,23.3Zm-2.5,12.11H53.29v1.25H31.44Zm0,19.76H53.29v1.39H31.44Zm0-3.9H53.29v1.39H31.44Zm0-4H53.29v1.4H31.44Zm0-3.89H53.29v1.39H31.44Zm0-4H53.29v1.39H31.44Zm6-14.61c.84,1.53.56,3.06.56,4.73H61.64V27.06a2.44,2.44,0,0,0-2.37-2.37Zm-.69,2.37v3.75H55.79V66H28.93V29.7a5,5,0,0,1,5-5C35.75,24.69,36.73,25.11,36.73,27.06Z"/></g></g></svg>