<svg xmlns="http://www.w3.org/2000/svg" viewBox="0 0 90.71 90.71"><defs><style>.cls-1{fill:#141d46;}.cls-2{fill:#fff;}</style></defs><g id="Layer_2" data-name="Layer 2"><g id="Layer_1-2" data-name="Layer 1"><circle class="cls-1" cx="45.36" cy="45.36" r="45.36"/><path class="cls-2" d="M61.82,23.28H36a7.28,7.28,0,0,0-5.12,1.6,6.41,6.41,0,0,0-1.92,5v28.4H22a.77.77,0,0,0-.76.81c0,.08.55,8.36,8.4,8.36H53.67c.58,0,4.37-.09,6.66-2.33A5.76,5.76,0,0,0,62,60.86l.28-36c4.42.29,5.41,4.57,5.63,6.38H64a.77.77,0,0,0-.77.76.78.78,0,0,0,.77.77h4.72a.83.83,0,0,0,.55-.23.76.76,0,0,0,.21-.55C69.47,29,67.79,23.28,61.82,23.28ZM60.5,60.85A4.24,4.24,0,0,1,59.26,64c-2,1.92-5.6,1.89-5.64,1.89h-24c-5.14,0-6.45-4.28-6.77-6.11H51a6.42,6.42,0,0,0,2.45,5,.76.76,0,0,0,.45.15.77.77,0,0,0,.45-1.38,4.91,4.91,0,0,1-1.78-4.43.76.76,0,0,0-.18-.6.8.8,0,0,0-.58-.26H30.5V29.88A5,5,0,0,1,31.91,26a5.82,5.82,0,0,1,4-1.22H60.77Z"/><path class="cls-2" d="M34.38,33a.77.77,0,0,0,.77.77H53.9a.77.77,0,0,0,0-1.53H35.15A.77.77,0,0,0,34.38,33Z"/><path class="cls-2" d="M47.58,39.23a.76.76,0,0,0-.76-.76H35.15a.76.76,0,1,0,0,1.52H46.81A.76.76,0,0,0,47.58,39.23Z"/><path class="cls-2" d="M41.81,44.72H35.15a.77.77,0,1,0,0,1.53h6.66a.77.77,0,1,0,0-1.53Z"/><path class="cls-2" d="M41,51H35.15a.76.76,0,1,0,0,1.52H41A.76.76,0,1,0,41,51Z"/><path class="cls-2" d="M47.08,45.37a5.06,5.06,0,0,0,1.27,3.33V55a.82.82,0,0,0,1.3.65L52,53.89l1.72,1.71a.78.78,0,0,0,.57.24.81.81,0,0,0,.81-.81V51.49a.81.81,0,1,0-1.62,0v1.57l-.83-.82a.81.81,0,0,0-1.06-.08L50,53.4V49.91a4.93,4.93,0,0,0,2.13.48,5,5,0,1,0-5-5Zm8.43,0A3.4,3.4,0,1,1,52.11,42,3.41,3.41,0,0,1,55.51,45.37Z"/></g></g></svg>