<svg xmlns="http://www.w3.org/2000/svg" viewBox="0 0 44.71 44.71"><defs><style>.cls-1{fill:#141d46;}</style></defs><g id="Layer_2" data-name="Layer 2"><g id="Layer_1-2" data-name="Layer 1"><path class="cls-1" d="M22.36,4c6,0,6.67,0,9,.13a12.23,12.23,0,0,1,4.15.77A6.81,6.81,0,0,1,38.11,6.6a6.91,6.91,0,0,1,1.68,2.57,12.55,12.55,0,0,1,.77,4.15c.1,2.36.13,3.07.13,9s0,6.67-.13,9a12.49,12.49,0,0,1-.77,4.15,7.49,7.49,0,0,1-4.25,4.25,12.49,12.49,0,0,1-4.15.77c-2.36.1-3.06.13-9,.13s-6.68,0-9-.13a12.55,12.55,0,0,1-4.15-.77A6.91,6.91,0,0,1,6.6,38.11a6.81,6.81,0,0,1-1.67-2.57,12.23,12.23,0,0,1-.77-4.15C4.05,29,4,28.33,4,22.36s0-6.68.13-9a12.29,12.29,0,0,1,.77-4.15A6.89,6.89,0,0,1,6.6,6.6,6.89,6.89,0,0,1,9.17,4.93a12.29,12.29,0,0,1,4.15-.77c2.36-.11,3.07-.13,9-.13m0-4c-6.07,0-6.84,0-9.22.13a16.52,16.52,0,0,0-5.43,1A11.45,11.45,0,0,0,1.17,7.71a16.52,16.52,0,0,0-1,5.43C0,15.52,0,16.29,0,22.36s0,6.83.13,9.22a16.45,16.45,0,0,0,1,5.42,11.09,11.09,0,0,0,2.58,4,10.91,10.91,0,0,0,4,2.58,16.52,16.52,0,0,0,5.43,1c2.38.11,3.15.13,9.22.13s6.83,0,9.22-.13a16.45,16.45,0,0,0,5.42-1A11.45,11.45,0,0,0,43.54,37a16.45,16.45,0,0,0,1-5.42c.11-2.39.13-3.15.13-9.22s0-6.84-.13-9.22a16.52,16.52,0,0,0-1-5.43,10.91,10.91,0,0,0-2.58-4,11.09,11.09,0,0,0-4-2.58,16.45,16.45,0,0,0-5.42-1C29.19,0,28.43,0,22.36,0Z"/><path class="cls-1" d="M22.36,10.88A11.48,11.48,0,1,0,33.84,22.36,11.48,11.48,0,0,0,22.36,10.88Zm0,18.93a7.46,7.46,0,1,1,7.45-7.45A7.46,7.46,0,0,1,22.36,29.81Z"/><circle class="cls-1" cx="34.29" cy="10.42" r="2.68"/></g></g></svg>