<svg xmlns="http://www.w3.org/2000/svg" viewBox="0 0 42.98 43.86"><defs><style>.cls-1{fill:#141d46;fill-rule:evenodd;}</style></defs><g id="Layer_2" data-name="Layer 2"><g id="Layer_1-2" data-name="Layer 1"><path class="cls-1" d="M42.58,17.94H21.93v8.49h11.8A10.07,10.07,0,0,1,29.36,33,13.22,13.22,0,1,1,21.93,8.72,11.85,11.85,0,0,1,30.31,12L36.6,5.71A21.07,21.07,0,0,0,21.93,0a21.93,21.93,0,1,0,0,43.86,20.93,20.93,0,0,0,14.51-5.31C40.59,34.73,43,29.11,43,22.43A25.17,25.17,0,0,0,42.58,17.94Z"/></g></g></svg>