<svg xmlns="http://www.w3.org/2000/svg" viewBox="0 0 90.71 90.71"><defs><style>.cls-1{fill:#141d46;}.cls-2{fill:#fff;}</style></defs><g id="Layer_2" data-name="Layer 2"><g id="Layer_1-2" data-name="Layer 1"><circle class="cls-1" cx="45.36" cy="45.36" r="45.36"/><path class="cls-2" d="M65.79,37.36H51.36V27.25A5.46,5.46,0,0,0,45.9,21.8h-21a5.45,5.45,0,0,0-5.45,5.45V40.37a5.29,5.29,0,0,0,.93,3c2,3.9,11.51,9.73,11.61,9.82a.87.87,0,0,0,.44.13.88.88,0,0,0,.56-.21.86.86,0,0,0,.24-1,37.74,37.74,0,0,1-1.73-6.35h7.84V55.94a5.44,5.44,0,0,0,5.45,5.44H59.19a37.85,37.85,0,0,1-1.73,6.36.88.88,0,0,0,.24,1,.87.87,0,0,0,.56.2.89.89,0,0,0,.45-.12c.09-.07,9.6-5.93,11.6-9.82a5.35,5.35,0,0,0,.94-3V42.82A5.48,5.48,0,0,0,65.79,37.36ZM36.27,44.09H30.49a.89.89,0,0,0-.66.3.88.88,0,0,0-.19.7,43.83,43.83,0,0,0,1.2,5.31c-3-2-7.71-5.5-8.88-7.74a1,1,0,0,0-.1-.17,3.65,3.65,0,0,1-.66-2.12V27.25a3.73,3.73,0,0,1,3.72-3.72h21a3.73,3.73,0,0,1,3.73,3.72V37.36H44.81a5.45,5.45,0,0,0-4.24,2A7.57,7.57,0,0,1,37,38.53,10.86,10.86,0,0,0,39.72,32h1.09a.87.87,0,0,0,0-1.73h-4.5V27.49a.87.87,0,1,0-1.73,0v2.7h-4.5a.87.87,0,1,0,0,1.73H38a9.06,9.06,0,0,1-2.24,5.42l-.14.13a9,9,0,0,1-2.16-3.35.87.87,0,1,0-1.62.62,10.74,10.74,0,0,0,2.36,3.75,8.52,8.52,0,0,1-4.08.91h0a.87.87,0,0,0,0,1.73,10,10,0,0,0,5.51-1.46,9,9,0,0,0,4,1.37,5.32,5.32,0,0,0-.29,1.73V44ZM69.52,55.94a3.65,3.65,0,0,1-.67,2.11.56.56,0,0,0-.09.17c-1.17,2.24-5.89,5.72-8.89,7.78a45.84,45.84,0,0,0,1.21-5.31.87.87,0,0,0-.86-1H44.81A3.73,3.73,0,0,1,41.08,56V42.82a3.75,3.75,0,0,1,3.73-3.73h21a3.74,3.74,0,0,1,3.73,3.73ZM56.14,42.64h0a.69.69,0,0,0-.13-.2.11.11,0,0,0-.06-.09l-.1-.06a.57.57,0,0,0-.18-.12h-.32l-.22,0H55a1.64,1.64,0,0,0-.22.14l-.06,0-.07.11a.94.94,0,0,0-.12.18h0l-5.19,13a.86.86,0,0,0,.48,1.12h0a.71.71,0,0,0,.32.07.87.87,0,0,0,.81-.55l1.5-3.78h5.75l1.51,3.78a.85.85,0,0,0,1.13.48.86.86,0,0,0,.48-1.12h0Zm-3,8.1,2.19-5.46,2.18,5.46Z"/></g></g></svg>