<svg xmlns="http://www.w3.org/2000/svg" viewBox="0 0 90.71 90.71"><defs><style>.cls-1{fill:#141d46;}.cls-2{fill:#fff;}</style></defs><g id="Layer_2" data-name="Layer 2"><g id="Layer_1-2" data-name="Layer 1"><circle class="cls-1" cx="45.36" cy="45.36" r="45.36"/><path class="cls-2" d="M45.36,24.87a8.43,8.43,0,0,0-4.2,15.74,13.83,13.83,0,0,0-5.24,3.13,10.13,10.13,0,0,0-3.16-1.9,6.63,6.63,0,1,0-7.34,0,10.24,10.24,0,0,0-6.57,9.56v6.36a1.21,1.21,0,0,0,.81,1.13,28.57,28.57,0,0,0,8.19,1.51,1.21,1.21,0,0,0,1.25-1.16A1.19,1.19,0,0,0,27.94,58h0a26.34,26.34,0,0,1-6.68-1.15V51.4a7.82,7.82,0,0,1,13.06-5.84,14.44,14.44,0,0,0-2.82,8.59v8.39a1.2,1.2,0,0,0,.79,1.13,40.36,40.36,0,0,0,26.11,0,1.2,1.2,0,0,0,.81-1.13V60.3c.79.07,1.59.12,2.41.12a28.86,28.86,0,0,0,9.43-1.53,1.21,1.21,0,0,0,.81-1.13V51.4a10.24,10.24,0,0,0-6.57-9.56,6.63,6.63,0,1,0-7.34,0,10.13,10.13,0,0,0-3.16,1.9,13.83,13.83,0,0,0-5.24-3.13,8.43,8.43,0,0,0-4.19-15.74Zm0,2.41a6,6,0,1,1-6,6A6,6,0,0,1,45.36,27.28ZM29.09,32.1a4.22,4.22,0,1,1-4.22,4.22A4.21,4.21,0,0,1,29.09,32.1Zm32.53,0a4.22,4.22,0,1,1-4.22,4.22A4.21,4.21,0,0,1,61.62,32.1ZM45.36,42.34A11.58,11.58,0,0,1,56.8,54.15V61.6a36.7,36.7,0,0,1-22.89,0V54.15A11.59,11.59,0,0,1,45.36,42.34Zm16.26,1.21a7.8,7.8,0,0,1,7.83,7.85v5.44A26.47,26.47,0,0,1,61.62,58c-.81,0-1.62,0-2.41-.12V54.15a14.38,14.38,0,0,0-2.82-8.59A7.8,7.8,0,0,1,61.62,43.55Z"/></g></g></svg>