<svg xmlns="http://www.w3.org/2000/svg" viewBox="0 0 123.96 123.96"><defs><style>.cls-1{fill:#141d46;}.cls-2{fill:#fff;}</style></defs><g id="Layer_2" data-name="Layer 2"><g id="Layer_1-2" data-name="Layer 1"><circle class="cls-1" cx="61.98" cy="61.98" r="61.98"/><path class="cls-2" d="M38.18,34.34H62.71a.93.93,0,0,1,.92.93V88.8a.93.93,0,0,1-.92.93H38.18a.93.93,0,0,1-.93-.93V35.27A.93.93,0,0,1,38.18,34.34Zm23.6,1.85H39.11V87.87H61.78Z"/><path class="cls-2" d="M86.31,50.05H63.63V87.87H86.31Zm-23.6-1.86H87.24a.93.93,0,0,1,.92.93V88.8a.93.93,0,0,1-.92.93H62.71a.93.93,0,0,1-.93-.93V49.12A.93.93,0,0,1,62.71,48.19Z"/><path class="cls-2" d="M42,39.45H47.9a.93.93,0,0,1,.93.93v5.91a.93.93,0,0,1-.93.93H42a.93.93,0,0,1-.93-.93V40.38A.92.92,0,0,1,42,39.45Zm5,1.85H42.91v4.06H47Z"/><path class="cls-2" d="M53,39.45H58.9a.93.93,0,0,1,.93.93v5.91a.93.93,0,0,1-.93.93H53a.93.93,0,0,1-.93-.93V40.38A.93.93,0,0,1,53,39.45Zm5,1.85H53.91v4.06H58Z"/><path class="cls-2" d="M42,51.24H47.9a.93.93,0,0,1,.93.93v5.92a.93.93,0,0,1-.93.92H42a.92.92,0,0,1-.93-.92V52.17A.93.93,0,0,1,42,51.24Zm5,1.86H42.91v4.06H47Z"/><path class="cls-2" d="M53,51.24H58.9a.93.93,0,0,1,.93.93v5.92a.93.93,0,0,1-.93.92H53a.93.93,0,0,1-.93-.92V52.17A.93.93,0,0,1,53,51.24Zm5,1.86H53.91v4.06H58Z"/><path class="cls-2" d="M42,63H47.9a.93.93,0,0,1,.93.93v5.91a.93.93,0,0,1-.93.93H42a.93.93,0,0,1-.93-.93V64A.92.92,0,0,1,42,63Zm5,1.85H42.91V69H47Z"/><path class="cls-2" d="M53,63H58.9a.93.93,0,0,1,.93.93v5.91a.93.93,0,0,1-.93.93H53a.93.93,0,0,1-.93-.93V64A.93.93,0,0,1,53,63Zm5,1.85H53.91V69H58Z"/><path class="cls-2" d="M66.51,53.19h5.92a.93.93,0,0,1,.93.93V60a.93.93,0,0,1-.93.93H66.51a.92.92,0,0,1-.92-.93V54.12A.93.93,0,0,1,66.51,53.19Zm5,1.85H67.44v4.07H71.5Z"/><path class="cls-2" d="M77.52,53.19h5.91a.93.93,0,0,1,.93.93V60a.93.93,0,0,1-.93.93H77.52a.93.93,0,0,1-.93-.93V54.12A.93.93,0,0,1,77.52,53.19Zm5,1.85H78.44v4.07h4.07Z"/><path class="cls-2" d="M66.51,65.08h5.92a.93.93,0,0,1,.93.92v5.92a.93.93,0,0,1-.93.92H66.51a.92.92,0,0,1-.92-.92V66A.92.92,0,0,1,66.51,65.08Zm5,1.85H67.44V71H71.5Z"/><path class="cls-2" d="M77.52,65.08h5.91a.93.93,0,0,1,.93.92v5.92a.93.93,0,0,1-.93.92H77.52a.93.93,0,0,1-.93-.92V66A.93.93,0,0,1,77.52,65.08Zm5,1.85H78.44V71h4.07Z"/><path class="cls-2" d="M66.51,77h5.92a.93.93,0,0,1,.93.92V83.8a.93.93,0,0,1-.93.93H66.51a.93.93,0,0,1-.92-.93V77.88A.92.92,0,0,1,66.51,77Zm5,1.85H67.44v4.06H71.5Z"/><path class="cls-2" d="M77.52,77h5.91a.93.93,0,0,1,.93.92V83.8a.93.93,0,0,1-.93.93H77.52a.93.93,0,0,1-.93-.93V77.88A.93.93,0,0,1,77.52,77Zm5,1.85H78.44v4.06h4.07Z"/><path class="cls-2" d="M46.51,87.87h7.87V77.5a.85.85,0,0,0-.86-.86H47.37a.85.85,0,0,0-.86.86Zm8.8,1.86H45.58a.93.93,0,0,1-.92-.93V77.5a2.7,2.7,0,0,1,2.71-2.71h6.15a2.7,2.7,0,0,1,2.71,2.71V88.8A.93.93,0,0,1,55.31,89.73Z"/><path class="cls-2" d="M33.77,87.87a.93.93,0,0,0,0,1.85H91.64a.93.93,0,1,0,0-1.85Z"/></g></g></svg>