<svg xmlns="http://www.w3.org/2000/svg" viewBox="0 0 24.22 42.01"><defs><style>.cls-1{fill:#ffc842;}</style></defs><g id="Layer_2" data-name="Layer 2"><g id="Layer_1-2" data-name="Layer 1"><path class="cls-1" d="M21,0H3.26A3.26,3.26,0,0,0,0,3.26V38.75A3.26,3.26,0,0,0,3.26,42H21a3.26,3.26,0,0,0,3.26-3.26V3.26A3.26,3.26,0,0,0,21,0ZM3.26,1.5H21a1.76,1.76,0,0,1,1.76,1.76V5.11H1.5V3.26A1.76,1.76,0,0,1,3.26,1.5ZM22.72,6.61V35.17H1.5V6.61ZM21,40.51H3.26A1.76,1.76,0,0,1,1.5,38.75V36.67H22.72v2.08A1.76,1.76,0,0,1,21,40.51Z"/><circle class="cls-1" cx="12.11" cy="38.52" r="1.38"/></g></g></svg>