<svg xmlns="http://www.w3.org/2000/svg" viewBox="0 0 90.71 90.71"><defs><style>.cls-1{fill:#141d46;}.cls-2{fill:#fff;}</style></defs><g id="Layer_2" data-name="Layer 2"><g id="Layer_1-2" data-name="Layer 1"><circle class="cls-1" cx="45.36" cy="45.36" r="45.36"/><path class="cls-2" d="M44.18,57.08H39.11l-4.39,11a1.18,1.18,0,0,1-2.18-.88l4.05-10.12H21.9a1.17,1.17,0,0,1,0-2.34h1.17v-27a1.18,1.18,0,0,1,1.18-1.17H44.18V23.07a1.18,1.18,0,0,1,2.35,0v3.52H66.47a1.18,1.18,0,0,1,1.17,1.17v27h1.17a1.17,1.17,0,1,1,0,2.34H54.13l4,10.12a1.17,1.17,0,1,1-2.17.88l-4.4-11H46.53V67.64a1.18,1.18,0,0,1-2.35,0Zm8.19-2.34H65.29V28.94H25.42v25.8H52.37ZM39.15,43.35,43,47.22l8.55-8.56a1.17,1.17,0,1,1,1.66,1.66L43.84,49.7a1.17,1.17,0,0,1-1.66,0L37.49,45a1.17,1.17,0,0,1,0-1.66A1.19,1.19,0,0,1,39.15,43.35Z"/></g></g></svg>