<svg xmlns="http://www.w3.org/2000/svg" viewBox="0 0 274.81 90.2"><defs><style>.cls-1{fill:#fff;}.cls-2{fill:#141d46;}</style></defs><g id="Layer_2" data-name="Layer 2"><g id="Layer_1-2" data-name="Layer 1"><path class="cls-1" d="M21.12,41.56c-5.18-5.09-6.78-14.39-6.44-21.23a1.48,1.48,0,0,1,1.48-1.4H33a3,3,0,0,0,2.32-1.12l13-16.39H1.47A1.47,1.47,0,0,0,0,2.89V15.15q0,15.13,7,22,6.36,6.19,18.19,7.67A20.75,20.75,0,0,1,21.12,41.56Z"/><path class="cls-1" d="M27.16,27.41c5.17,5.1,6.77,14.39,6.43,21.23a1.48,1.48,0,0,1-1.48,1.41H15.3A3,3,0,0,0,13,51.17L0,67.56H46.8a1.47,1.47,0,0,0,1.47-1.47V53.83q0-15.13-7-22-6.36-6.2-18.19-7.67A21.06,21.06,0,0,1,27.16,27.41Z"/><path class="cls-2" d="M58,15.61A14.54,14.54,0,0,1,62.69,4.54,15.24,15.24,0,0,1,74,.06a15.52,15.52,0,0,1,7.76,2,14.49,14.49,0,0,1,5.48,5.48l-4.64,3.28q-3.23-5.05-8.6-5a9.28,9.28,0,0,0-6.93,2.82,9.77,9.77,0,0,0-2.75,7.09,9.61,9.61,0,0,0,2.75,7A9.36,9.36,0,0,0,74,25.48q5.37,0,8.6-5.05l4.64,3.27a14,14,0,0,1-5.46,5.48,15.59,15.59,0,0,1-7.82,2,15.23,15.23,0,0,1-11.35-4.48A14.45,14.45,0,0,1,58,15.61Z"/><path class="cls-2" d="M109.58,17.25V30.62h-5.64V28.43a9.13,9.13,0,0,1-6.87,2.73,8.27,8.27,0,0,1-5.66-1.86,6.2,6.2,0,0,1-2.12-4.87,5.72,5.72,0,0,1,2.3-4.8,10,10,0,0,1,6.21-1.75h5.64v-1A3.87,3.87,0,0,0,102.37,14a4.34,4.34,0,0,0-3.12-1,6.4,6.4,0,0,0-3,.72A12,12,0,0,0,93.3,16l-3.19-3.78a12.32,12.32,0,0,1,9.83-4.63,9.65,9.65,0,0,1,7,2.52A9.46,9.46,0,0,1,109.58,17.25Zm-6.14,4.95v-.27H98.62c-2.1,0-3.14.76-3.14,2.27a2.1,2.1,0,0,0,.89,1.8,3.82,3.82,0,0,0,2.34.66,4.77,4.77,0,0,0,3.38-1.25A4.17,4.17,0,0,0,103.44,22.2Z"/><path class="cls-2" d="M111.82,30.62V0H118V30.62Z"/><path class="cls-2" d="M137.55,8.11h5.64v20q0,5.41-3.14,8.33a12,12,0,0,1-8.5,2.91,16.14,16.14,0,0,1-11.05-4.19l3.22-4.27q3.91,2.91,7.32,2.91a6.62,6.62,0,0,0,4.39-1.36,4.9,4.9,0,0,0,1.62-4V27.25a8.85,8.85,0,0,1-6.87,2.68,10.32,10.32,0,0,1-7.73-3.13,11.1,11.1,0,0,1-3-8,11,11,0,0,1,3-8,10.4,10.4,0,0,1,7.73-3.09c3.28,0,5.73,1.1,7.37,3.32Zm-.41,10.55a5.4,5.4,0,0,0-5.69-5.82,5.76,5.76,0,0,0-4.18,1.59,5.68,5.68,0,0,0-1.64,4.27,6,6,0,0,0,1.66,4.37,5.62,5.62,0,0,0,4.16,1.68,5.5,5.5,0,0,0,4.05-1.64A6,6,0,0,0,137.14,18.66Z"/><path class="cls-2" d="M165.4,17.25V30.62h-5.64V28.43a9.13,9.13,0,0,1-6.87,2.73,8.27,8.27,0,0,1-5.66-1.86,6.2,6.2,0,0,1-2.12-4.87,5.72,5.72,0,0,1,2.3-4.8,10,10,0,0,1,6.21-1.75h5.64v-1A3.87,3.87,0,0,0,158.19,14a4.34,4.34,0,0,0-3.12-1,6.4,6.4,0,0,0-3,.72A12,12,0,0,0,149.12,16l-3.19-3.78a12.32,12.32,0,0,1,9.82-4.63,9.67,9.67,0,0,1,7.05,2.52A9.46,9.46,0,0,1,165.4,17.25Zm-6.14,4.95v-.27h-4.82c-2.1,0-3.14.76-3.14,2.27a2.12,2.12,0,0,0,.88,1.8,3.87,3.87,0,0,0,2.35.66,4.81,4.81,0,0,0,3.39-1.25A4.2,4.2,0,0,0,159.26,22.2Z"/><path class="cls-2" d="M181.66,8.11v5.41H180a6.28,6.28,0,0,0-4.44,1.5A5.68,5.68,0,0,0,174,19.38V30.62h-6.14V8.11h5.64v2.68a7.54,7.54,0,0,1,6.18-3A6.36,6.36,0,0,1,181.66,8.11Z"/><path class="cls-2" d="M200.63,8.11h6.45L196.31,32.57a12.75,12.75,0,0,1-3.69,5.14,8.41,8.41,0,0,1-5.27,1.64,15.1,15.1,0,0,1-4-.55V33.66q1.86.18,2.64.18a4.51,4.51,0,0,0,4.68-3l.69-1.55L182.75,8.11h6.51l5.5,14.78Z"/><path class="cls-2" d="M69.35,67.56V43.1H59.76V37.55H85.13V43.1H75.49V67.56Z"/><path class="cls-2" d="M99.46,45.05v5.42H97.82A6.24,6.24,0,0,0,93.39,52a5.64,5.64,0,0,0-1.62,4.36V67.56H85.63V45.05h5.64v2.69a7.56,7.56,0,0,1,6.19-3A6.77,6.77,0,0,1,99.46,45.05Z"/><path class="cls-2" d="M120.56,54.19V67.56h-5.64V65.38a9.13,9.13,0,0,1-6.87,2.73,8.27,8.27,0,0,1-5.66-1.86,6.19,6.19,0,0,1-2.11-4.87,5.71,5.71,0,0,1,2.29-4.8,10,10,0,0,1,6.21-1.75h5.64v-1a3.87,3.87,0,0,0-1.07-2.93,4.34,4.34,0,0,0-3.11-1,6.42,6.42,0,0,0-3,.73A12,12,0,0,0,104.28,53l-3.19-3.78a12.34,12.34,0,0,1,9.83-4.64,9.65,9.65,0,0,1,7,2.53A9.49,9.49,0,0,1,120.56,54.19Zm-6.14,5v-.27H109.6c-2.09,0-3.14.76-3.14,2.27a2.13,2.13,0,0,0,.89,1.8,3.82,3.82,0,0,0,2.34.66,4.81,4.81,0,0,0,3.39-1.25A4.23,4.23,0,0,0,114.42,59.15Z"/><path class="cls-2" d="M144.21,53.6v14h-6.1V54.42A4.4,4.4,0,0,0,137,51.26a4,4,0,0,0-3-1.2,4.15,4.15,0,0,0-3.07,1.2,4.27,4.27,0,0,0-1.21,3.16V67.56h-6.14V45.05h5.64V47.1a8.93,8.93,0,0,1,6.6-2.55A8,8,0,0,1,141.93,47,9.32,9.32,0,0,1,144.21,53.6Z"/><path class="cls-2" d="M146.93,63.74,150,60a8.66,8.66,0,0,0,6.33,3,4,4,0,0,0,2.06-.48,1.52,1.52,0,0,0,.8-1.38,1.3,1.3,0,0,0-.48-1.07,9,9,0,0,0-1.84-1l-2.41-1a13.13,13.13,0,0,1-4.68-2.89,5.61,5.61,0,0,1-1.46-4,5.94,5.94,0,0,1,2.28-4.93,9.37,9.37,0,0,1,6-1.8,10.49,10.49,0,0,1,8.09,3.37l-3.09,3.77a7.23,7.23,0,0,0-5.05-2.13c-1.6,0-2.41.53-2.41,1.59a1.29,1.29,0,0,0,.5,1,7.89,7.89,0,0,0,1.87,1l2.18.91A14,14,0,0,1,163.55,57a5.47,5.47,0,0,1,1.48,4,6.26,6.26,0,0,1-2.5,5.28,9.94,9.94,0,0,1-6.27,1.91A11,11,0,0,1,146.93,63.74Z"/><path class="cls-2" d="M167.84,67.56V35.11H174V67.56Z"/><path class="cls-2" d="M196.68,54.19V67.56H191V65.38a9.12,9.12,0,0,1-6.86,2.73,8.28,8.28,0,0,1-5.67-1.86,6.19,6.19,0,0,1-2.11-4.87,5.69,5.69,0,0,1,2.3-4.8,10,10,0,0,1,6.2-1.75h5.64v-1a3.87,3.87,0,0,0-1.07-2.93,4.34,4.34,0,0,0-3.11-1,6.45,6.45,0,0,0-3.05.73A12,12,0,0,0,180.4,53l-3.18-3.78A12.33,12.33,0,0,1,187,44.55a9.65,9.65,0,0,1,7.05,2.53A9.45,9.45,0,0,1,196.68,54.19Zm-6.14,5v-.27h-4.82c-2.09,0-3.14.76-3.14,2.27a2.13,2.13,0,0,0,.89,1.8,3.82,3.82,0,0,0,2.34.66,4.78,4.78,0,0,0,3.39-1.25A4.23,4.23,0,0,0,190.54,59.15Z"/><path class="cls-2" d="M215.92,62.42v5.14a17.19,17.19,0,0,1-4.23.55q-4.32,0-6.66-2.14t-2.35-6.32V50.24h-3.54V45.05h3.54V39.37h6.14v5.68h6.37v5.19h-6.37v8.87a3.3,3.3,0,0,0,1,2.7,5.1,5.1,0,0,0,3.21.8C213.52,62.61,214.49,62.55,215.92,62.42Z"/><path class="cls-2" d="M218.33,67.56V45.05h6.14V67.56Z"/><path class="cls-2" d="M227.24,56.29a11,11,0,0,1,3.5-8.33,12.45,12.45,0,0,1,17.12,0,11.58,11.58,0,0,1,0,16.67,11.62,11.62,0,0,1-8.6,3.43,11.39,11.39,0,0,1-8.52-3.43A11,11,0,0,1,227.24,56.29Zm16.21,4.41a6,6,0,0,0,1.66-4.37,6.18,6.18,0,0,0-1.66-4.41,5.82,5.82,0,0,0-8.34,0,6.24,6.24,0,0,0-1.64,4.43,6.11,6.11,0,0,0,1.64,4.37,5.91,5.91,0,0,0,8.34,0Z"/><path class="cls-2" d="M274.81,53.6v14h-6.1V54.42a4.35,4.35,0,0,0-1.16-3.16,4,4,0,0,0-3-1.2,4.15,4.15,0,0,0-3.07,1.2,4.27,4.27,0,0,0-1.21,3.16V67.56h-6.14V45.05h5.64V47.1a8.93,8.93,0,0,1,6.6-2.55A8,8,0,0,1,272.53,47,9.32,9.32,0,0,1,274.81,53.6Z"/><path class="cls-1" d="M60.12,87.41l2-2.39a5.57,5.57,0,0,0,4.06,2,2.48,2.48,0,0,0,1.32-.31,1,1,0,0,0,.51-.89.83.83,0,0,0-.3-.68,5.53,5.53,0,0,0-1.18-.63L65,83.82A8.37,8.37,0,0,1,62,82,3.61,3.61,0,0,1,61,79.42a3.81,3.81,0,0,1,1.45-3.16,6,6,0,0,1,3.85-1.15,6.74,6.74,0,0,1,5.19,2.15l-2,2.42a4.65,4.65,0,0,0-3.24-1.37c-1,0-1.54.34-1.54,1a.81.81,0,0,0,.32.67,4.63,4.63,0,0,0,1.19.61l1.4.59a8.91,8.91,0,0,1,3.1,1.86,3.5,3.5,0,0,1,1,2.54A4,4,0,0,1,70.12,89a6.33,6.33,0,0,1-4,1.22A7,7,0,0,1,60.12,87.41Z"/><path class="cls-1" d="M86.64,84H76.53a3.54,3.54,0,0,0,1.41,2.11,4.54,4.54,0,0,0,2.64.74,6.47,6.47,0,0,0,4-1.45l1.64,2.68a8.86,8.86,0,0,1-5.77,2.15A7.59,7.59,0,0,1,74.83,88a7,7,0,0,1-2.26-5.38,7.45,7.45,0,0,1,7.55-7.54A6.6,6.6,0,0,1,85,77a6.53,6.53,0,0,1,1.91,4.78A9.12,9.12,0,0,1,86.64,84ZM76.53,81.2h6.56a2.83,2.83,0,0,0-.92-2.12,3.19,3.19,0,0,0-2.2-.8,3.33,3.33,0,0,0-2.19.79A3.82,3.82,0,0,0,76.53,81.2Z"/><path class="cls-1" d="M97.51,75.43v3.46h-1a4,4,0,0,0-2.85,1,3.62,3.62,0,0,0-1,2.79v7.2H88.65V75.43h3.62v1.72a4.82,4.82,0,0,1,4-1.9A4.08,4.08,0,0,1,97.51,75.43Z"/><path class="cls-1" d="M110.22,75.43h4.17L107.25,90.2h-1.31L98.8,75.43h4.14l3.64,8.16Z"/><path class="cls-1" d="M116,89.85V75.43h3.94V89.85Z"/><path class="cls-1" d="M122.26,82.63a7.2,7.2,0,0,1,2.24-5.34A7.54,7.54,0,0,1,130,75.11a6.7,6.7,0,0,1,6.27,3.55l-2.74,2.13a4.19,4.19,0,0,0-3.47-2.1,3.63,3.63,0,0,0-2.73,1.12,4.31,4.31,0,0,0,0,5.66A3.59,3.59,0,0,0,130,86.59a4.2,4.2,0,0,0,3.47-2.07l2.74,2.1a7,7,0,0,1-2.58,2.64,7.18,7.18,0,0,1-3.69.94A7.34,7.34,0,0,1,124.5,88,7.08,7.08,0,0,1,122.26,82.63Z"/><path class="cls-1" d="M151.4,84H141.29a3.54,3.54,0,0,0,1.41,2.11,4.54,4.54,0,0,0,2.64.74,6.47,6.47,0,0,0,4-1.45L151,88.05a8.84,8.84,0,0,1-5.77,2.15A7.62,7.62,0,0,1,139.58,88a7,7,0,0,1-2.26-5.38,7.46,7.46,0,0,1,7.55-7.54A6.61,6.61,0,0,1,149.76,77a6.52,6.52,0,0,1,1.9,4.78A9.1,9.1,0,0,1,151.4,84ZM141.29,81.2h6.56a2.83,2.83,0,0,0-.92-2.12,3.19,3.19,0,0,0-2.2-.8,3.31,3.31,0,0,0-2.19.79A3.82,3.82,0,0,0,141.29,81.2Z"/><path class="cls-1" d="M152.68,87.41l2-2.39a5.54,5.54,0,0,0,4.05,2,2.48,2.48,0,0,0,1.32-.31,1,1,0,0,0,.51-.89.83.83,0,0,0-.3-.68,5.53,5.53,0,0,0-1.18-.63l-1.55-.64a8.37,8.37,0,0,1-3-1.85,3.61,3.61,0,0,1-.93-2.55A3.81,3.81,0,0,1,155,76.26a6,6,0,0,1,3.85-1.15,6.74,6.74,0,0,1,5.19,2.15l-2,2.42a4.63,4.63,0,0,0-3.24-1.37c-1,0-1.54.34-1.54,1a.81.81,0,0,0,.32.67,4.63,4.63,0,0,0,1.19.61l1.4.59a9.06,9.06,0,0,1,3.11,1.86,3.53,3.53,0,0,1,.94,2.54,4,4,0,0,1-1.6,3.38,6.33,6.33,0,0,1-4,1.22A7,7,0,0,1,152.68,87.41Z"/></g></g></svg>