<svg xmlns="http://www.w3.org/2000/svg" xmlns:xlink="http://www.w3.org/1999/xlink" viewBox="0 0 1065.52 816.53"><defs><style>.cls-1{fill:none;}.cls-2{isolation:isolate;}.cls-3{clip-path:url(#clip-path);}.cls-4{clip-path:url(#clip-path-2);}.cls-5{fill:#fff;}.cls-6{clip-path:url(#clip-path-3);}.cls-7{clip-path:url(#clip-path-4);}.cls-11,.cls-8{mix-blend-mode:multiply;}.cls-9{clip-path:url(#clip-path-5);}.cls-10{clip-path:url(#clip-path-6);}.cls-11{fill:#141d46;opacity:0.58;}.cls-12{clip-path:url(#clip-path-7);}.cls-13{clip-path:url(#clip-path-8);}</style><clipPath id="clip-path"><rect class="cls-1" y="827.69" width="1139.43" height="887.78"/></clipPath><clipPath id="clip-path-2"><path class="cls-1" d="M-55.9,2743.32c-228.77-225.24-307.41-626.15-301.72-938.89a118.22,118.22,0,0,1,118.24-116H473.17a187.23,187.23,0,0,0,146.81-71L1046.86,951.5c25.47-32.2,2.55-79.58-38.5-79.58H-922.3a117.82,117.82,0,0,0-117.82,117.82V1512q0,705.57,327.56,1024.72,239.79,233.52,646.2,323c49,10.8,80.65-50.11,43.75-84.15Q-39.64,2759.85-55.9,2743.32Z"/></clipPath><clipPath id="clip-path-3"><rect class="cls-1" y="-44.24" width="1139.43" height="887.78"/></clipPath><clipPath id="clip-path-4"><path class="cls-1" d="M-55.9,1871.4c-228.77-225.24-307.41-626.16-301.72-938.89a118.23,118.23,0,0,1,118.24-116H473.17a187.23,187.23,0,0,0,146.81-71L1046.86,79.57C1072.33,47.38,1049.41,0,1008.36,0H-922.3a117.82,117.82,0,0,0-117.82,117.82V640.09q0,705.57,327.56,1024.72,239.79,233.54,646.2,323c49,10.8,80.65-50.11,43.75-84.15Q-39.64,1887.91-55.9,1871.4Z"/></clipPath><clipPath id="clip-path-5"><rect class="cls-1" x="-1159.92" y="827.69" width="1139.43" height="887.78"/></clipPath><clipPath id="clip-path-6"/><clipPath id="clip-path-7"><rect class="cls-1" x="-1159.92" y="-44.24" width="1139.43" height="887.78"/></clipPath><clipPath id="clip-path-8"><path class="cls-1" d="M-1215.82,1871.4c-228.78-225.24-307.41-626.16-301.72-938.89a118.23,118.23,0,0,1,118.23-116h712.56a187.23,187.23,0,0,0,146.81-71L-113.07,79.57C-87.59,47.38-110.52,0-151.57,0H-2082.23A117.82,117.82,0,0,0-2200,117.82V640.09q0,705.57,327.57,1024.72,239.79,233.54,646.19,323c49,10.8,80.65-50.11,43.76-84.15Q-1199.57,1887.91-1215.82,1871.4Z"/></clipPath><image id="image" width="3840" height="2560" xlink:href="../../../../../../Library/Application%20Support/Adobe/Creative%20Cloud%20Libraries/LIBS/71AE607F4AB8446399201549_AdobeID/links/775a3fed-88ae-40bf-994b-916a65eafb98.jpeg"/></defs><g class="cls-2"><g id="Layer_1" data-name="Layer 1"><g class="cls-3"><g class="cls-4"><rect class="cls-5" x="-251.79" y="770.8" width="1420.1" height="962.21"/></g></g><g class="cls-6"><g class="cls-7"><rect class="cls-8" x="-251.79" y="-101.12" width="1420.1" height="962.21"/></g></g><g class="cls-9"><g class="cls-10"><use id="Europe_at_night_from_space_city_lights_elements_from_NASA" data-name="Europe at night from space, city lights, elements from NASA" transform="translate(-1647.94 597.23) scale(0.43)" xlink:href="#image"/><rect class="cls-11" x="-1411.71" y="770.8" width="1420.1" height="962.21"/></g></g><g class="cls-12"><g class="cls-13"><use id="Europe_at_night_from_space_city_lights_elements_from_NASA-2" data-name="Europe at night from space, city lights, elements from NASA" transform="translate(-1647.94 -274.69) scale(0.43)" xlink:href="#image"/><rect class="cls-11" x="-1411.71" y="-101.12" width="1420.1" height="962.21"/></g></g></g></g></svg>